<svg width="26" height="32" viewBox="0 0 26 32" fill="none" xmlns="http://www.w3.org/2000/svg">
<path d="M25.707 19.8974L23 17.0303V13.2322C22.9969 10.6074 22.075 8.07716 20.4126 6.1306C18.7502 4.18404 16.4654 2.95948 14 2.6937V0.522461H12V2.6937C9.53457 2.95948 7.24976 4.18404 5.58737 6.1306C3.92498 8.07716 3.0031 10.6074 3 13.2322V17.0303L0.293 19.8974C0.105451 20.0959 5.66374e-05 20.3653 0 20.6462V23.8236C0 24.1045 0.105357 24.3739 0.292893 24.5725C0.48043 24.7712 0.734784 24.8827 1 24.8827H8V25.7057C7.97825 27.0494 8.4254 28.3543 9.25578 29.3704C10.0862 30.3865 11.2414 31.0423 12.5 31.2122C13.1952 31.2852 13.8971 31.2033 14.5606 30.9717C15.2241 30.7402 15.8345 30.3641 16.3525 29.8677C16.8706 29.3713 17.2848 28.7656 17.5685 28.0895C17.8522 27.4133 17.9992 26.6818 18 25.9419V24.8827H25C25.2652 24.8827 25.5196 24.7712 25.7071 24.5725C25.8946 24.3739 26 24.1045 26 23.8236V20.6462C25.9999 20.3653 25.8946 20.0959 25.707 19.8974ZM16 25.9419C16 26.7846 15.6839 27.5928 15.1213 28.1887C14.5587 28.7845 13.7956 29.1193 13 29.1193C12.2044 29.1193 11.4413 28.7845 10.8787 28.1887C10.3161 27.5928 10 26.7846 10 25.9419V24.8827H16V25.9419ZM24 22.7645H2V21.0847L4.707 18.2176C4.89455 18.019 4.99994 17.7496 5 17.4687V13.2322C5 10.985 5.84285 8.82978 7.34315 7.24076C8.84344 5.65173 10.8783 4.75903 13 4.75903C15.1217 4.75903 17.1566 5.65173 18.6569 7.24076C20.1571 8.82978 21 10.985 21 13.2322V17.4687C21.0001 17.7496 21.1054 18.019 21.293 18.2176L24 21.0847V22.7645Z" fill="#009BFA"/>
</svg>
