<svg width="19" height="19" viewBox="0 0 19 19" fill="none" xmlns="http://www.w3.org/2000/svg">
<path d="M8 15.7811C9.77498 15.7807 11.4988 15.213 12.897 14.1684L17.293 18.3682L18.707 17.0173L14.311 12.8175C15.405 11.4816 15.9996 9.8343 16 8.1381C16 3.92395 12.411 0.495117 8 0.495117C3.589 0.495117 0 3.92395 0 8.1381C0 12.3522 3.589 15.7811 8 15.7811ZM8 2.40586C11.309 2.40586 14 4.97677 14 8.1381C14 11.2994 11.309 13.8703 8 13.8703C4.691 13.8703 2 11.2994 2 8.1381C2 4.97677 4.691 2.40586 8 2.40586Z" fill="#828282"/>
</svg>
