<svg width="68" height="60" viewBox="0 0 68 60" fill="none" xmlns="http://www.w3.org/2000/svg">
<path d="M35.4318 14.7456L35.5252 14.774L35.5294 14.7691C35.9621 14.8477 36.3884 14.5834 36.5143 14.1513C37.6669 10.2135 41.297 7.46504 45.3387 7.46504C45.8212 7.46504 46.2084 7.06779 46.2084 6.5833C46.2084 6.09879 45.8212 5.70156 45.3387 5.70156C40.3652 5.70156 36.1881 9.06838 34.8472 13.65C34.711 14.1145 34.9705 14.6057 35.4318 14.7456Z" fill="#003399" stroke="#F9FFF9" stroke-width="0.3"/>
<path d="M55.4134 42.4384H51.0956C50.6982 42.4384 50.3759 42.1107 50.3759 41.7067C50.3759 41.3027 50.6982 40.9749 51.0956 40.9749H55.4134C61.3654 40.9749 66.2081 36.0509 66.2081 29.999C66.2081 23.9471 61.3654 19.023 55.4134 19.023H55.3096C55.1009 19.023 54.9025 18.9311 54.7657 18.7706C54.629 18.6101 54.5673 18.3974 54.5971 18.1873C54.6614 17.7315 54.6938 17.2737 54.6938 16.8279C54.6938 11.5829 50.4966 7.31531 45.3383 7.31531C43.3315 7.31531 41.4177 7.95296 39.8036 9.15978C39.4489 9.42478 38.9452 9.30718 38.7401 8.91047C34.1688 0.0596993 22.2291 -1.12887 16.0389 6.57053C13.4313 9.81417 12.4067 14.0336 13.2277 18.146C13.3182 18.6002 12.9763 19.0236 12.5225 19.0236H12.2341C6.28213 19.0236 1.43937 23.9477 1.43937 29.9996C1.43937 36.0514 6.28213 40.9755 12.2341 40.9755H16.5519C16.9493 40.9755 17.2716 41.3032 17.2716 41.7072C17.2716 42.1113 16.9493 42.439 16.5519 42.439H12.2341C5.48836 42.439 0 36.8585 0 29.9995C0 23.3329 5.18451 17.8742 11.6692 17.5731C11.06 13.3066 12.2248 9.00295 14.9245 5.64437C21.5519 -2.5996 34.2529 -1.67556 39.6219 7.51707C41.3347 6.42522 43.2947 5.85244 45.338 5.85244C51.5877 5.85244 56.5399 11.261 56.1066 17.58C62.5315 17.9463 67.6472 23.3763 67.6472 29.999C67.6472 36.8585 62.1588 42.4384 55.4131 42.4384L55.4134 42.4384Z" fill="#003399"/>
<path d="M15.5858 41.2935C15.5858 51.4611 23.7217 59.737 33.7273 59.737C43.733 59.737 51.8687 51.4609 51.8687 41.2935C51.8687 31.1259 43.733 22.85 33.7273 22.85C23.7215 22.85 15.5858 31.126 15.5858 41.2935ZM17.3255 41.2935C17.3255 32.0942 24.6858 24.6138 33.7273 24.6138C42.7686 24.6138 50.129 32.0941 50.129 41.2935C50.129 50.4927 42.7686 57.9732 33.7273 57.9732C24.6859 57.9732 17.3255 50.4929 17.3255 41.2935Z" fill="#003399" stroke="#F9FFF9" stroke-width="0.3"/>
<path d="M33.3803 48.6577C33.3803 49.0339 33.6811 49.3434 34.0571 49.3434C34.4332 49.3434 34.734 49.0344 34.734 48.6577V34.7291C34.734 34.3528 34.4332 34.0434 34.0571 34.0434C33.681 34.0434 33.3803 34.3528 33.3803 34.7291V48.6577Z" fill="#003399" stroke="#003399" stroke-width="0.3"/>
<path d="M34.0563 35.7017L37.7917 39.4998C37.9235 39.6338 38.0975 39.7015 38.2712 39.7015L34.0563 35.7017ZM34.0563 35.7017L30.321 39.4997C30.321 39.4997 30.321 39.4997 30.321 39.4997L30.3209 39.4998L34.0563 35.7017ZM34.5358 34.2461C34.2712 33.9771 33.841 33.977 33.5767 34.2462L38.2712 39.7015C38.4446 39.7015 38.6188 39.6343 38.7509 39.4996C39.0139 39.2319 39.0139 38.7994 38.7507 38.5318L34.5358 34.2461Z" fill="#003399" stroke="#003399" stroke-width="0.3"/>
</svg>
