<svg width="27" height="30" viewBox="0 0 27 30" fill="none" xmlns="http://www.w3.org/2000/svg">
<path d="M13.5 0.541016C12.0166 0.541016 10.5666 0.984493 9.33322 1.81537C8.09985 2.64624 7.13856 3.8272 6.5709 5.20889C6.00325 6.59059 5.85472 8.11097 6.14411 9.57777C6.4335 11.0446 7.14781 12.3919 8.1967 13.4494C9.24559 14.5069 10.582 15.2271 12.0368 15.5189C13.4917 15.8106 14.9997 15.6609 16.3701 15.0886C17.7406 14.5162 18.9119 13.5471 19.736 12.3036C20.5601 11.0601 21 9.59812 21 8.10258C21 6.09713 20.2098 4.17382 18.8033 2.75575C17.3968 1.33768 15.4891 0.541016 13.5 0.541016ZM13.5 12.6395C12.61 12.6395 11.74 12.3734 10.9999 11.8749C10.2599 11.3764 9.68314 10.6678 9.34254 9.83879C9.00195 9.00977 8.91283 8.09755 9.08647 7.21747C9.2601 6.33739 9.68868 5.52898 10.318 4.89448C10.9474 4.25998 11.7492 3.82788 12.6221 3.65282C13.495 3.47776 14.3998 3.56761 15.2221 3.911C16.0443 4.25439 16.7471 4.8359 17.2416 5.58199C17.7361 6.32809 18 7.20526 18 8.10258C18 9.30585 17.5259 10.4598 16.682 11.3107C15.8381 12.1615 14.6935 12.6395 13.5 12.6395ZM27 29.275V27.7626C27 24.955 25.8938 22.2624 23.9246 20.2771C21.9555 18.2918 19.2848 17.1765 16.5 17.1765H10.5C7.71523 17.1765 5.04451 18.2918 3.07538 20.2771C1.10625 22.2624 0 24.955 0 27.7626V29.275H3V27.7626C3 25.7572 3.79018 23.8339 5.1967 22.4158C6.60322 20.9977 8.51088 20.2011 10.5 20.2011H16.5C18.4891 20.2011 20.3968 20.9977 21.8033 22.4158C23.2098 23.8339 24 25.7572 24 27.7626V29.275H27Z" fill="#009BFA"/>
</svg>
