<svg width="26" height="26" viewBox="0 0 26 26" fill="none" xmlns="http://www.w3.org/2000/svg">
<path d="M24.3762 13.2525C24.3762 12.3173 24.2988 11.6348 24.1312 10.927H13.2334V15.1483H19.6302C19.5012 16.1974 18.8048 17.7773 17.2572 18.8389L17.2355 18.9802L20.6812 21.5962L20.9199 21.6195C23.1123 19.6352 24.3762 16.7156 24.3762 13.2525Z" fill="#4285F4"/>
<path d="M13.2323 24.3749C16.3662 24.3749 18.9971 23.3637 20.9188 21.6196L17.2561 18.8389C16.2759 19.5088 14.9604 19.9764 13.2323 19.9764C10.1629 19.9764 7.55778 17.9922 6.62912 15.2495L6.493 15.2608L2.91014 17.9782L2.86328 18.1059C4.77198 21.8217 8.69261 24.3749 13.2323 24.3749Z" fill="#34A853"/>
<path d="M6.62989 15.2496C6.38485 14.5418 6.24304 13.7834 6.24304 12.9999C6.24304 12.2162 6.38485 11.4579 6.617 10.7501L6.61051 10.5994L2.98273 7.83838L2.86404 7.89371C2.07737 9.43567 1.62598 11.1672 1.62598 12.9999C1.62598 14.8325 2.07737 16.564 2.86404 18.1059L6.62989 15.2496Z" fill="#FBBC05"/>
<path d="M13.2324 6.0233C15.4119 6.0233 16.8821 6.94594 17.7204 7.71696L20.9962 4.5825C18.9844 2.74987 16.3663 1.625 13.2324 1.625C8.69265 1.625 4.77199 4.17804 2.86328 7.89384L6.61625 10.7503C7.5578 8.00763 10.1629 6.0233 13.2324 6.0233Z" fill="#EB4335"/>
</svg>
