<svg width="11" height="11" viewBox="0 0 11 11" fill="none" xmlns="http://www.w3.org/2000/svg">
<path d="M8.2876 4.76367H8.95015V5.42839H8.2876V4.76367ZM2.4903 6.09312H1.66211V6.75784H2.4903V10.9124H8.12196V6.75784H8.95015V6.09312H2.4903ZM7.45941 10.2476H3.15284V6.75784H7.45941V10.2476Z" fill="black"/>
<path d="M8.78411 3.27026V0.94165H1.99299V3.27026C1.56873 3.29207 1.169 3.47639 0.876219 3.78521C0.583438 4.09402 0.419937 4.50378 0.419434 4.92999V8.91833H1.82735V8.2536H1.08198V4.92999C1.08228 4.66564 1.18708 4.4122 1.37339 4.22527C1.55971 4.03835 1.81232 3.9332 2.07581 3.9329H8.7013C8.96478 3.9332 9.21739 4.03835 9.40371 4.22527C9.59002 4.4122 9.69482 4.66564 9.69512 4.92999V8.2536H8.78411V8.91833H10.3577V4.92999C10.3572 4.50378 10.1937 4.09402 9.90088 3.78521C9.6081 3.47639 9.20837 3.29207 8.78411 3.27026ZM8.12157 3.26818H2.65554V1.60637H8.12157V3.26818Z" fill="black"/>
</svg>
