<svg width="11" height="11" viewBox="0 0 11 11" fill="none" xmlns="http://www.w3.org/2000/svg">
<path d="M8.02823 9.31894C8.42029 9.31894 8.73811 9.00007 8.73811 8.60673C8.73811 8.2134 8.42029 7.89453 8.02823 7.89453C7.63618 7.89453 7.31836 8.2134 7.31836 8.60673C7.31836 9.00007 7.63618 9.31894 8.02823 9.31894Z" fill="black"/>
<path d="M10.7885 8.42118C10.5692 7.86063 10.1908 7.37698 9.70008 7.03016C9.20941 6.68334 8.62808 6.48861 8.02816 6.4701C7.42823 6.48861 6.8469 6.68334 6.35623 7.03016C5.86556 7.37698 5.48712 7.86063 5.26781 8.42118L5.18866 8.60671L5.26781 8.79223C5.48712 9.35278 5.86556 9.83643 6.35623 10.1833C6.8469 10.5301 7.42823 10.7248 8.02816 10.7433C8.62808 10.7248 9.20941 10.5301 9.70008 10.1833C10.1908 9.83643 10.5692 9.35278 10.7885 8.79223L10.8677 8.60671L10.7885 8.42118ZM8.02816 10.0311C7.74736 10.0311 7.47286 9.94757 7.23939 9.79106C7.00591 9.63454 6.82394 9.41208 6.71648 9.1518C6.60902 8.89153 6.58091 8.60513 6.63569 8.32882C6.69047 8.05251 6.82569 7.79871 7.02424 7.5995C7.2228 7.40029 7.47577 7.26463 7.75118 7.20967C8.02658 7.15471 8.31204 7.18292 8.57147 7.29073C8.83089 7.39854 9.05263 7.58111 9.20863 7.81535C9.36464 8.04959 9.4479 8.32499 9.4479 8.60671C9.44743 8.98434 9.2977 9.34637 9.03155 9.61339C8.7654 9.88042 8.40455 10.0306 8.02816 10.0311ZM2.7041 6.11399H4.47879V6.8262H2.7041V6.11399ZM2.7041 4.33349H6.96334V5.04569H2.7041V4.33349ZM2.7041 2.55298H6.96334V3.26518H2.7041V2.55298Z" fill="black"/>
<path d="M8.02794 0.772461H1.63907C1.45098 0.773025 1.27074 0.848241 1.13774 0.981683C1.00473 1.11513 0.929761 1.29595 0.929199 1.48466V10.0311C0.929761 10.2198 1.00473 10.4006 1.13774 10.5341C1.27074 10.6675 1.45098 10.7427 1.63907 10.7433H4.47857V10.0311H1.63907V1.48466H8.02794V5.40178H8.73781V1.48466C8.73725 1.29595 8.66228 1.11513 8.52927 0.981683C8.39627 0.848241 8.21604 0.773025 8.02794 0.772461Z" fill="black"/>
</svg>
