<svg width="35" height="39" viewBox="0 0 35 39" fill="none" xmlns="http://www.w3.org/2000/svg">
<path d="M28.9167 3.87838V4.12838H29.1667H31.1111C33.1126 4.12838 34.75 5.76236 34.75 7.75676V34.9054C34.75 36.8998 33.1126 38.5338 31.1111 38.5338H3.88889C1.8688 38.5338 0.25 36.9006 0.25 34.9054L0.269444 7.75694V7.75676C0.269444 5.7599 1.87044 4.12838 3.88889 4.12838H5.83333H6.08333V3.87838V0.25H9.47222V3.87838V4.12838H9.72222H25.2778H25.5278V3.87838V0.25H28.9167V3.87838ZM31.1111 35.1554H31.3611V34.9054V15.5135V15.2635H31.1111H3.88889H3.63889V15.5135V34.9054V35.1554H3.88889H31.1111ZM31.1111 11.8851H31.3611V11.6351V7.75676V7.50676H31.1111H3.88889H3.63889V7.75676V11.6351V11.8851H3.88889H31.1111ZM11.4167 23.0203H8.02778V19.6419H11.4167V23.0203ZM19.1944 23.0203H15.8056V19.6419H19.1944V23.0203ZM23.5833 23.0203V19.6419H26.9722V23.0203H23.5833ZM11.4167 30.777H8.02778V27.3986H11.4167V30.777ZM19.1944 30.777H15.8056V27.3986H19.1944V30.777ZM23.5833 30.777V27.3986H26.9722V30.777H23.5833Z" fill="white" fill-opacity="0.8" stroke="#18369B" stroke-width="0.5"/>
</svg>
