<svg width="36" height="35" viewBox="0 0 36 35" fill="none" xmlns="http://www.w3.org/2000/svg">
<mask id="path-1-inside-1_187_210" fill="white">
<path d="M21.032 34.6914H14.9571C14.6196 34.6914 14.3205 34.5902 14.0597 34.3878C13.7989 34.1855 13.6378 33.9253 13.5765 33.6073L12.8401 29.2275C12.2572 29.0251 11.6436 28.7505 10.9992 28.4036C10.3549 28.0566 9.78734 27.6953 9.29644 27.3195L5.01639 29.1841C4.6789 29.3287 4.3414 29.3503 4.00391 29.2492C3.66642 29.148 3.40562 28.9384 3.22154 28.6204L0.184088 23.5468C5.96046e-08 23.2577 -0.046022 22.9541 0.0460219 22.6361C0.138066 22.3181 0.322154 22.0579 0.598285 21.8556L4.55617 19.1236C4.49481 18.8634 4.45646 18.5671 4.44112 18.2347C4.42578 17.9022 4.41811 17.6059 4.41811 17.3457C4.41811 17.0855 4.42578 16.7892 4.44112 16.4567C4.45646 16.1243 4.49481 15.8279 4.55617 15.5678L0.598285 12.8358C0.322154 12.6334 0.138066 12.3733 0.0460219 12.0553C-0.046022 11.7372 5.96046e-08 11.4337 0.184088 11.1446L3.22154 6.07099C3.40562 5.75299 3.66642 5.54339 4.00391 5.44221C4.3414 5.34103 4.6789 5.36271 5.01639 5.50726L9.29644 7.37192C9.78734 6.99609 10.3549 6.63473 10.9992 6.28781C11.6436 5.9409 12.2572 5.68071 12.8401 5.50726L13.5765 1.08411C13.6378 0.766101 13.7989 0.505916 14.0597 0.303549C14.3205 0.101183 14.6196 0 14.9571 0H21.032C21.3695 0 21.6687 0.101183 21.9295 0.303549C22.1903 0.505916 22.3513 0.766101 22.4127 1.08411L23.149 5.46389C23.732 5.66626 24.3533 5.93367 25.0129 6.26613C25.6726 6.59859 26.2325 6.96718 26.6927 7.37192L30.9728 5.50726C31.3103 5.36271 31.6478 5.34103 31.9853 5.44221C32.3228 5.54339 32.5835 5.75299 32.7676 6.07099L35.8051 11.1012C35.9892 11.3903 36.0429 11.7011 35.9662 12.0336C35.8895 12.366 35.6977 12.6334 35.3909 12.8358L31.433 15.481C31.4944 15.7701 31.5327 16.0809 31.548 16.4134C31.5634 16.7458 31.5711 17.0566 31.5711 17.3457C31.5711 17.6348 31.5634 17.9383 31.548 18.2563C31.5327 18.5743 31.4944 18.8779 31.433 19.167L35.3909 21.8556C35.667 22.0579 35.8511 22.3181 35.9431 22.6361C36.0352 22.9541 35.9892 23.2577 35.8051 23.5468L32.7676 28.6204C32.5835 28.9384 32.3228 29.148 31.9853 29.2492C31.6478 29.3503 31.3103 29.3287 30.9728 29.1841L26.6927 27.3195C26.2018 27.6953 25.6419 28.0639 25.0129 28.4252C24.384 28.7866 23.7627 29.054 23.149 29.2275L22.4127 33.6073C22.3513 33.9253 22.1903 34.1855 21.9295 34.3878C21.6687 34.5902 21.3695 34.6914 21.032 34.6914ZM17.9946 22.983C19.6514 22.983 21.0627 22.4338 22.2286 21.3352C23.3945 20.2366 23.9774 18.9068 23.9774 17.3457C23.9774 15.7846 23.3945 14.4547 22.2286 13.3562C21.0627 12.2576 19.6514 11.7083 17.9946 11.7083C16.3378 11.7083 14.9265 12.2576 13.7606 13.3562C12.5947 14.4547 12.0117 15.7846 12.0117 17.3457C12.0117 18.9068 12.5947 20.2366 13.7606 21.3352C14.9265 22.4338 16.3378 22.983 17.9946 22.983ZM17.9946 20.3812C17.1048 20.3812 16.3455 20.0849 15.7165 19.4922C15.0875 18.8996 14.773 18.1841 14.773 17.3457C14.773 16.5073 15.0875 15.7918 15.7165 15.1992C16.3455 14.6065 17.1048 14.3102 17.9946 14.3102C18.8843 14.3102 19.6437 14.6065 20.2727 15.1992C20.9016 15.7918 21.2161 16.5073 21.2161 17.3457C21.2161 18.1841 20.9016 18.8996 20.2727 19.4922C19.6437 20.0849 18.8843 20.3812 17.9946 20.3812ZM15.9696 32.0895H20.0196L20.6639 27.2327C21.6763 27.0015 22.6351 26.6401 23.5402 26.1486C24.4453 25.6572 25.2661 25.0645 26.0024 24.3707L30.8807 26.3654L32.7216 23.2432L28.3955 20.2511C28.5183 19.7596 28.618 19.2754 28.6947 18.7984C28.7714 18.3214 28.8097 17.8371 28.8097 17.3457C28.8097 16.8542 28.7791 16.37 28.7177 15.893C28.6563 15.416 28.549 14.9317 28.3955 14.4403L32.7216 11.4482L30.8807 8.32593L26.0024 10.3207C25.2967 9.56904 24.499 8.94026 23.6093 8.43434C22.7195 7.92843 21.7377 7.60319 20.6639 7.45865L20.0196 2.60185H15.9696L15.3253 7.45865C14.2821 7.66101 13.308 8.00793 12.4029 8.49939C11.4978 8.99085 10.6924 9.59795 9.98676 10.3207L5.10844 8.32593L3.26756 11.4482L7.59362 14.4403C7.4709 14.9317 7.37118 15.416 7.29448 15.893C7.21778 16.37 7.17943 16.8542 7.17943 17.3457C7.17943 17.8371 7.21778 18.3214 7.29448 18.7984C7.37118 19.2754 7.4709 19.7596 7.59362 20.2511L3.26756 23.2432L5.10844 26.3654L9.98676 24.3707C10.7231 25.0645 11.5438 25.6572 12.4489 26.1486C13.354 26.6401 14.3128 27.0015 15.3253 27.2327L15.9696 32.0895Z"/>
</mask>
<path d="M21.032 34.6914H14.9571C14.6196 34.6914 14.3205 34.5902 14.0597 34.3878C13.7989 34.1855 13.6378 33.9253 13.5765 33.6073L12.8401 29.2275C12.2572 29.0251 11.6436 28.7505 10.9992 28.4036C10.3549 28.0566 9.78734 27.6953 9.29644 27.3195L5.01639 29.1841C4.6789 29.3287 4.3414 29.3503 4.00391 29.2492C3.66642 29.148 3.40562 28.9384 3.22154 28.6204L0.184088 23.5468C5.96046e-08 23.2577 -0.046022 22.9541 0.0460219 22.6361C0.138066 22.3181 0.322154 22.0579 0.598285 21.8556L4.55617 19.1236C4.49481 18.8634 4.45646 18.5671 4.44112 18.2347C4.42578 17.9022 4.41811 17.6059 4.41811 17.3457C4.41811 17.0855 4.42578 16.7892 4.44112 16.4567C4.45646 16.1243 4.49481 15.8279 4.55617 15.5678L0.598285 12.8358C0.322154 12.6334 0.138066 12.3733 0.0460219 12.0553C-0.046022 11.7372 5.96046e-08 11.4337 0.184088 11.1446L3.22154 6.07099C3.40562 5.75299 3.66642 5.54339 4.00391 5.44221C4.3414 5.34103 4.6789 5.36271 5.01639 5.50726L9.29644 7.37192C9.78734 6.99609 10.3549 6.63473 10.9992 6.28781C11.6436 5.9409 12.2572 5.68071 12.8401 5.50726L13.5765 1.08411C13.6378 0.766101 13.7989 0.505916 14.0597 0.303549C14.3205 0.101183 14.6196 0 14.9571 0H21.032C21.3695 0 21.6687 0.101183 21.9295 0.303549C22.1903 0.505916 22.3513 0.766101 22.4127 1.08411L23.149 5.46389C23.732 5.66626 24.3533 5.93367 25.0129 6.26613C25.6726 6.59859 26.2325 6.96718 26.6927 7.37192L30.9728 5.50726C31.3103 5.36271 31.6478 5.34103 31.9853 5.44221C32.3228 5.54339 32.5835 5.75299 32.7676 6.07099L35.8051 11.1012C35.9892 11.3903 36.0429 11.7011 35.9662 12.0336C35.8895 12.366 35.6977 12.6334 35.3909 12.8358L31.433 15.481C31.4944 15.7701 31.5327 16.0809 31.548 16.4134C31.5634 16.7458 31.5711 17.0566 31.5711 17.3457C31.5711 17.6348 31.5634 17.9383 31.548 18.2563C31.5327 18.5743 31.4944 18.8779 31.433 19.167L35.3909 21.8556C35.667 22.0579 35.8511 22.3181 35.9431 22.6361C36.0352 22.9541 35.9892 23.2577 35.8051 23.5468L32.7676 28.6204C32.5835 28.9384 32.3228 29.148 31.9853 29.2492C31.6478 29.3503 31.3103 29.3287 30.9728 29.1841L26.6927 27.3195C26.2018 27.6953 25.6419 28.0639 25.0129 28.4252C24.384 28.7866 23.7627 29.054 23.149 29.2275L22.4127 33.6073C22.3513 33.9253 22.1903 34.1855 21.9295 34.3878C21.6687 34.5902 21.3695 34.6914 21.032 34.6914ZM17.9946 22.983C19.6514 22.983 21.0627 22.4338 22.2286 21.3352C23.3945 20.2366 23.9774 18.9068 23.9774 17.3457C23.9774 15.7846 23.3945 14.4547 22.2286 13.3562C21.0627 12.2576 19.6514 11.7083 17.9946 11.7083C16.3378 11.7083 14.9265 12.2576 13.7606 13.3562C12.5947 14.4547 12.0117 15.7846 12.0117 17.3457C12.0117 18.9068 12.5947 20.2366 13.7606 21.3352C14.9265 22.4338 16.3378 22.983 17.9946 22.983ZM17.9946 20.3812C17.1048 20.3812 16.3455 20.0849 15.7165 19.4922C15.0875 18.8996 14.773 18.1841 14.773 17.3457C14.773 16.5073 15.0875 15.7918 15.7165 15.1992C16.3455 14.6065 17.1048 14.3102 17.9946 14.3102C18.8843 14.3102 19.6437 14.6065 20.2727 15.1992C20.9016 15.7918 21.2161 16.5073 21.2161 17.3457C21.2161 18.1841 20.9016 18.8996 20.2727 19.4922C19.6437 20.0849 18.8843 20.3812 17.9946 20.3812ZM15.9696 32.0895H20.0196L20.6639 27.2327C21.6763 27.0015 22.6351 26.6401 23.5402 26.1486C24.4453 25.6572 25.2661 25.0645 26.0024 24.3707L30.8807 26.3654L32.7216 23.2432L28.3955 20.2511C28.5183 19.7596 28.618 19.2754 28.6947 18.7984C28.7714 18.3214 28.8097 17.8371 28.8097 17.3457C28.8097 16.8542 28.7791 16.37 28.7177 15.893C28.6563 15.416 28.549 14.9317 28.3955 14.4403L32.7216 11.4482L30.8807 8.32593L26.0024 10.3207C25.2967 9.56904 24.499 8.94026 23.6093 8.43434C22.7195 7.92843 21.7377 7.60319 20.6639 7.45865L20.0196 2.60185H15.9696L15.3253 7.45865C14.2821 7.66101 13.308 8.00793 12.4029 8.49939C11.4978 8.99085 10.6924 9.59795 9.98676 10.3207L5.10844 8.32593L3.26756 11.4482L7.59362 14.4403C7.4709 14.9317 7.37118 15.416 7.29448 15.893C7.21778 16.37 7.17943 16.8542 7.17943 17.3457C7.17943 17.8371 7.21778 18.3214 7.29448 18.7984C7.37118 19.2754 7.4709 19.7596 7.59362 20.2511L3.26756 23.2432L5.10844 26.3654L9.98676 24.3707C10.7231 25.0645 11.5438 25.6572 12.4489 26.1486C13.354 26.6401 14.3128 27.0015 15.3253 27.2327L15.9696 32.0895Z" fill="white" stroke="#18369B" mask="url(#path-1-inside-1_187_210)"/>
</svg>
