<svg width="36" height="35" viewBox="0 0 36 35" fill="none" xmlns="http://www.w3.org/2000/svg">
<path d="M31.725 30.8218H31.975V30.5718V28.1867C31.975 27.9147 31.8086 27.6531 31.5917 27.4217C31.3667 27.1817 31.0469 26.9314 30.6555 26.6796C29.871 26.175 28.7642 25.6418 27.4555 25.1554C24.8379 24.1825 21.3769 23.3835 18 23.3835C14.6231 23.3835 11.1621 24.1825 8.54446 25.1554C7.23579 25.6418 6.12901 26.175 5.34455 26.6796C4.95311 26.9314 4.63329 27.1817 4.40826 27.4217C4.19141 27.6531 4.025 27.9147 4.025 28.1867V30.5718V30.8218H4.275H31.725ZM22.975 8.67284C22.975 6.011 20.7393 3.8696 18 3.8696C15.2607 3.8696 13.025 6.011 13.025 8.67284C13.025 11.3347 15.2607 13.4761 18 13.4761C20.7393 13.4761 22.975 11.3347 22.975 8.67284ZM9.25 8.67284C9.25 4.02781 13.1568 0.25 18 0.25C22.8432 0.25 26.75 4.02781 26.75 8.67284C26.75 13.3179 22.8432 17.0957 18 17.0957C13.1568 17.0957 9.25 13.3179 9.25 8.67284ZM0.25 28.1867C0.25 26.8403 0.947927 25.64 2.13384 24.5853C3.32103 23.5294 4.9774 22.6387 6.83722 21.9208C10.5569 20.4848 15.0263 19.7639 18 19.7639C20.9737 19.7639 25.4431 20.4848 29.1628 21.9208C31.0226 22.6387 32.679 23.5294 33.8662 24.5853C35.0521 25.64 35.75 26.8403 35.75 28.1867V32.5232C35.75 33.569 34.8582 34.4414 33.75 34.4414H2.25C1.14177 34.4414 0.25 33.569 0.25 32.5232V28.1867Z" fill="white" fill-opacity="0.8" stroke="#18369B" stroke-width="0.5"/>
</svg>
